<?xml version="1.0" encoding="UTF-8"?>
<svg version="1.1" xmlns="http://www.w3.org/2000/svg" width="500" height="500">
<path d="M0 0 C165 0 330 0 500 0 C500 165 500 330 500 500 C335 500 170 500 0 500 C0 335 0 170 0 0 Z " fill="#FEFEFE" transform="translate(0,0)"/>
<path d="M0 0 C4.24975959 -0.11789773 8.49908905 -0.18781321 12.75 -0.25 C13.93722656 -0.28351563 15.12445313 -0.31703125 16.34765625 -0.3515625 C27.27951581 -0.47103637 37.20165117 1.09126359 45.29638672 8.97314453 C48.37667194 12.63788054 50.46759691 16.65293427 52.5625 20.9375 C53.05790283 21.91823486 53.55330566 22.89896973 54.0637207 23.90942383 C63.36063556 42.49895671 72.07763419 61.41763682 80.4753418 80.4284668 C81.846153 83.96303444 81.846153 83.96303444 84 87 C85.48845002 83.94192808 86.96408052 80.87783856 88.4375 77.8125 C88.85837891 76.94818359 89.27925781 76.08386719 89.71289062 75.19335938 C90.11572266 74.35224609 90.51855469 73.51113281 90.93359375 72.64453125 C91.30540771 71.87471924 91.67722168 71.10490723 92.06030273 70.31176758 C93.04652149 67.88555158 93.56736479 65.57786785 94 63 C94.66 63 95.32 63 96 63 C96.27674561 62.12811035 96.55349121 61.2562207 96.83862305 60.35791016 C97.92539722 57.21570036 99.17224994 54.28221225 100.58203125 51.2734375 C101.09604492 50.17169189 101.61005859 49.06994629 102.13964844 47.93481445 C102.69168945 46.76007568 103.24373047 45.58533691 103.8125 44.375 C104.38736249 43.1462263 104.96190154 41.91730123 105.53613281 40.68823242 C106.4321543 38.77062018 107.32846706 36.85314892 108.2260437 34.93626404 C110.40311193 30.28560298 112.56305045 25.62724703 114.71484375 20.96484375 C115.31336092 19.66941776 115.91191183 18.37400736 116.51049805 17.07861328 C117.37802215 15.20112897 118.24498259 13.32339655 119.11001587 11.44476318 C119.90987201 9.70834027 120.71267424 7.97327533 121.515625 6.23828125 C121.97227539 5.24868408 122.42892578 4.25908691 122.89941406 3.23950195 C124 1 124 1 125 0 C127.29151417 -0.08790975 129.58572524 -0.10694038 131.87890625 -0.09765625 C132.90889992 -0.09553383 132.90889992 -0.09553383 133.95970154 -0.09336853 C136.16067801 -0.08775479 138.36155409 -0.07520007 140.5625 -0.0625 C142.05143083 -0.05748676 143.54036324 -0.05292355 145.02929688 -0.04882812 C148.68623075 -0.03778093 152.34310558 -0.02050713 156 0 C156 0.33 156 0.66 156 1 C155.071875 1.268125 154.14375 1.53625 153.1875 1.8125 C150.20486385 2.92367817 148.88134543 3.52454549 147 6 C146.03146413 8.90560761 145.9172735 10.52717411 146.0168457 13.52807617 C146.15793184 18.64182243 146.22570675 23.75190566 146.26635742 28.86743164 C146.29700097 31.07230798 146.35086515 33.27698952 146.4284668 35.48071289 C147.02795342 53.44510416 147.02795342 53.44510416 143.56243896 57.81109619 C139.78870732 60.92927436 135.64871767 62.59315618 131 64 C133.02515027 66.21603664 133.02515027 66.21603664 136.28515625 67.7734375 C140.00927355 69.86048486 142.59224283 72.42038642 145.4375 75.625 C145.90994141 76.15424072 146.38238281 76.68348145 146.86914062 77.22875977 C150.35383331 81.16676984 153.66372182 85.2315547 156.90625 89.37109375 C159.37434445 92.47002577 161.92989104 95.48563685 164.5 98.5 C168.3898973 103.06758207 172.17749162 107.69847504 175.90234375 112.40234375 C178.82738914 116.02460666 181.84544186 119.56562498 184.88085938 123.09570312 C187.56590332 126.23692443 190.14380638 129.44418993 192.67553711 132.71069336 C193.29988144 133.51558701 193.92422577 134.32048065 194.56748962 135.14976501 C195.27658226 136.06563133 195.27658226 136.06563133 196 137 C196.11595557 128.61149531 196.2047454 120.22332656 196.25906086 111.83421803 C196.28513253 107.93858809 196.32048427 104.04350727 196.37719727 100.14819336 C196.43160664 96.38747974 196.46143883 92.62729356 196.47438622 88.86621666 C196.48361035 87.43285508 196.50162371 85.99952172 196.52865028 84.56638527 C196.56504759 82.55601894 196.56704327 80.54511953 196.56762695 78.53442383 C196.58428154 76.81900139 196.58428154 76.81900139 196.60127258 75.06892395 C195.81232141 71.04207953 194.12520246 69.56580289 191 67 C188.6025129 66.00484354 188.6025129 66.00484354 186.1875 65.6875 C185.39730469 65.54699219 184.60710937 65.40648437 183.79296875 65.26171875 C182.90544922 65.13216797 182.90544922 65.13216797 182 65 C182 64.34 182 63.68 182 63 C193.22 63 204.44 63 216 63 C216 63.66 216 64.32 216 65 C215.32453125 65.14695312 214.6490625 65.29390625 213.953125 65.4453125 C213.06109375 65.66960937 212.1690625 65.89390625 211.25 66.125 C209.92742187 66.43824219 209.92742187 66.43824219 208.578125 66.7578125 C205.12655949 68.42083952 203.46740328 70.54091232 202 74 C201.41310013 77.68524981 201.4359944 81.32841896 201.45410156 85.05419922 C201.43859505 86.70874367 201.43859505 86.70874367 201.42277527 88.39671326 C201.39334083 92.03285357 201.39184789 95.66843739 201.390625 99.3046875 C201.37564388 101.82961082 201.35891688 104.35452434 201.34051514 106.87942505 C201.30128517 112.83973307 201.27962848 118.79993988 201.26654124 124.76034749 C201.25065097 131.54884699 201.21222695 138.33716112 201.17194796 145.12555289 C201.08963037 159.08363944 201.03548752 173.04172143 201 187 C193.5644022 179.58660945 186.78491907 171.82550331 180.36865234 163.52563477 C176.88721762 159.0528498 173.24110731 154.75702698 169.5 150.5 C164.8644394 145.22272865 160.45573926 139.82863301 156.1640625 134.26953125 C152.75233305 129.88161331 149.16756533 125.67551452 145.5 121.5 C140.87083622 116.2297079 136.46632107 110.84413238 132.18164062 105.29150391 C128.08404776 100.01996564 123.73590782 94.98442149 119.32617188 89.97265625 C118.80603516 89.38097656 118.28589844 88.78929687 117.75 88.1796875 C117.29109375 87.66132324 116.8321875 87.14295898 116.359375 86.60888672 C114.82642324 84.79456343 113.41874659 82.9044213 112 81 C111.93046995 93.28280092 111.87717333 105.56555496 111.84456348 117.84851265 C111.8289119 123.55207397 111.80768261 129.25550058 111.77368164 134.95898438 C111.74107052 140.46381834 111.72314317 145.96852278 111.71536827 151.47344589 C111.70982795 153.572987 111.69900906 155.67252107 111.68280983 157.77200699 C111.66101253 160.71420833 111.65803407 163.65587535 111.65942383 166.59814453 C111.648638 167.46489304 111.63785217 168.33164154 111.6267395 169.22465515 C111.65223067 174.21653452 112.17655166 177.70002469 115 182 C118.5624487 184.24589157 121.84573781 185.38907909 126 186 C126 186.33 126 186.66 126 187 C114.78 187 103.56 187 92 187 C92 186.67 92 186.34 92 186 C92.60328125 185.82984375 93.2065625 185.6596875 93.828125 185.484375 C100.22499493 183.55059316 100.22499493 183.55059316 105 179 C105.91999251 176.24002246 106.13295519 174.57255003 106.15390015 171.72463989 C106.16250061 170.85266968 106.17110107 169.98069946 106.17996216 169.08230591 C106.18422211 168.12847015 106.18848206 167.1746344 106.19287109 166.19189453 C106.20104858 165.18511658 106.20922607 164.17833862 106.21765137 163.14105225 C106.2424918 159.8049784 106.25901594 156.46894699 106.2734375 153.1328125 C106.28142302 151.42522074 106.28142302 151.42522074 106.28956985 149.68313217 C106.3162926 143.66034366 106.33567235 137.63757584 106.35009766 131.61474609 C106.36676434 125.38791137 106.41156208 119.16160397 106.4624691 112.93496895 C106.49608302 108.15147272 106.50766855 103.36810275 106.51332474 98.58449936 C106.52005087 96.28873529 106.53530803 93.99297991 106.55921555 91.69733047 C106.59074996 88.4867439 106.59092131 85.2775946 106.58349609 82.06689453 C106.59990143 81.11710724 106.61630676 80.16731995 106.63320923 79.18875122 C106.58976119 74.60493022 106.50083349 72.64456776 103.60806274 68.92160034 C101.25935956 67.19109411 99.86397507 66.31821945 97 66 C96.77957031 66.75925781 96.55914062 67.51851563 96.33203125 68.30078125 C94.47969549 73.44495124 92.07959266 78.27530333 89.6875 83.1875 C88.61327865 85.40885291 87.53906 87.63020712 86.46484375 89.8515625 C85.62155518 91.59034668 85.62155518 91.59034668 84.76123047 93.36425781 C82.03683414 98.9838375 79.3330158 104.61333587 76.62612915 110.24136353 C74.41931328 114.82848732 72.2093276 119.41408559 70 124 C69.34 124 68.68 124 68 124 C67.37508667 122.62956543 67.37508667 122.62956543 66.73754883 121.23144531 C44.60396497 72.62728724 44.60396497 72.62728724 21.29443359 24.57958984 C20.97540573 23.94220383 20.65637787 23.30481781 20.3276825 22.64811707 C19.55206432 21.09860653 18.77607207 19.54928325 18 18 C17.93050505 30.43045592 17.87719118 42.86086566 17.84456348 55.29147625 C17.82890423 61.06344652 17.80766097 66.83528393 17.77368164 72.60717773 C17.74109783 78.1768455 17.72314894 83.74638541 17.71536827 89.31614113 C17.70982304 91.44162827 17.69899464 93.56710837 17.68280983 95.69254112 C17.66104884 98.66847254 17.65803255 101.64387493 17.65942383 104.61987305 C17.648638 105.49956757 17.63785217 106.37926208 17.6267395 107.28561401 C17.6506505 112.00886846 17.88769582 115.19185441 21 119 C23.90092502 120.93395001 24.89674737 121.30131941 28.1875 121.625 C30.0746875 121.810625 30.0746875 121.810625 32 122 C32 122.66 32 123.32 32 124 C20.78 124 9.56 124 -2 124 C-2 123.34 -2 122.68 -2 122 C-1.39671875 121.90203125 -0.7934375 121.8040625 -0.171875 121.703125 C4.66472214 120.79821328 7.96182788 120.17748667 11 116 C11.91999251 113.24002246 12.13295519 111.57255003 12.15390015 108.72463989 C12.16250061 107.85266968 12.17110107 106.98069946 12.17996216 106.08230591 C12.18422211 105.12847015 12.18848206 104.1746344 12.19287109 103.19189453 C12.20104858 102.18511658 12.20922607 101.17833862 12.21765137 100.14105225 C12.2424918 96.8049784 12.25901594 93.46894699 12.2734375 90.1328125 C12.27876118 88.99441799 12.28408485 87.85602348 12.28956985 86.68313217 C12.3162926 80.66034366 12.33567235 74.63757584 12.35009766 68.61474609 C12.36676434 62.38791137 12.41156208 56.16160397 12.4624691 49.93496895 C12.49608302 45.15147272 12.50766855 40.36810275 12.51332474 35.58449936 C12.52005087 33.28873529 12.53530803 30.99297991 12.55921555 28.69733047 C12.59074996 25.4867439 12.59092131 22.2775946 12.58349609 19.06689453 C12.59990143 18.11710724 12.61630676 17.16731995 12.63320923 16.18875122 C12.58965987 11.5942411 12.50861468 9.64811519 9.5897522 5.92868042 C7.33518546 4.24962451 5.89208852 3.27084262 3.1875 2.6875 C2.135625 2.460625 1.08375 2.23375 0 2 C0 1.34 0 0.68 0 0 Z " fill="#010103" transform="translate(138,156)"/>
<path d="M0 0 C14.25433339 14.57682962 21.43400441 32.95854868 21.5 53.3125 C21.18753622 73.41808335 14.03333939 91.52711658 0.125 106.25 C-9.83816456 115.77761639 -20.61401518 121.67971462 -33.8125 125.625 C-34.88242187 125.99238281 -35.95234375 126.35976563 -37.0546875 126.73828125 C-41.92651668 127.88787088 -46.51257043 127.9248317 -51.5 127.875 C-52.47952637 127.86750732 -53.45905273 127.86001465 -54.46826172 127.85229492 C-75.1695561 127.54478192 -92.81401653 120.0863477 -107.8125 105.625 C-108.4723288 105.04966522 -109.13215759 104.47433044 -109.8119812 103.88156128 C-116.70462032 96.87766929 -116.79247492 90.37374476 -116.71887207 81.07504272 C-116.67803209 79.18282206 -116.63630434 77.29062038 -116.59375 75.3984375 C-116.57880773 73.43977175 -116.5674301 71.48107587 -116.55944824 69.52236938 C-116.52907022 64.3956886 -116.45063299 59.27085438 -116.36181641 54.14489746 C-116.27961362 48.90284193 -116.24336353 43.66048462 -116.203125 38.41796875 C-116.11762308 28.15283962 -115.98129214 17.88907404 -115.8125 7.625 C-108.3769022 15.03839055 -101.59741907 22.79949669 -95.18115234 31.09936523 C-91.69971762 35.5721502 -88.05360731 39.86797302 -84.3125 44.125 C-79.6769394 49.40227135 -75.26823926 54.79636699 -70.9765625 60.35546875 C-67.56483305 64.74338669 -63.98006533 68.94948548 -60.3125 73.125 C-55.68333622 78.3952921 -51.27882107 83.78086762 -46.99414062 89.33349609 C-42.89654776 94.60503436 -38.54840782 99.64057851 -34.13867188 104.65234375 C-33.61853516 105.24402344 -33.09839844 105.83570313 -32.5625 106.4453125 C-32.10359375 106.96367676 -31.6446875 107.48204102 -31.171875 108.01611328 C-29.63892324 109.83043657 -28.23124659 111.7205787 -26.8125 113.625 C-26.81103344 113.05331274 -26.80956688 112.48162548 -26.80805588 111.89261436 C-26.770975 97.97056653 -26.71169152 84.04876492 -26.62859726 70.12691307 C-26.58881838 63.39433782 -26.55642016 56.66187925 -26.54150391 49.92919922 C-26.52708894 43.43219494 -26.49196446 36.93549403 -26.44419098 30.43864822 C-26.42934996 27.95957202 -26.42145743 25.48044419 -26.42061615 23.0013237 C-26.41825305 19.52962401 -26.39122411 16.05892907 -26.35839844 12.58740234 C-26.36594398 11.04883575 -26.36594398 11.04883575 -26.37364197 9.47918701 C-26.28707087 3.56396508 -25.78518571 0.11270109 -21.8125 -4.375 C-11.89728445 -10.49289896 -7.74207135 -7.27467075 0 0 Z " fill="#5170FD" transform="translate(364.8125,228.375)"/>
<path d="M0 0 C4.24975959 -0.11789773 8.49908905 -0.18781321 12.75 -0.25 C13.93722656 -0.28351563 15.12445313 -0.31703125 16.34765625 -0.3515625 C27.27951581 -0.47103637 37.20165117 1.09126359 45.29638672 8.97314453 C48.37667194 12.63788054 50.46759691 16.65293427 52.5625 20.9375 C53.05790283 21.91823486 53.55330566 22.89896973 54.0637207 23.90942383 C63.36063556 42.49895671 72.07763419 61.41763682 80.4753418 80.4284668 C81.846153 83.96303444 81.846153 83.96303444 84 87 C85.48845002 83.94192808 86.96408052 80.87783856 88.4375 77.8125 C88.85837891 76.94818359 89.27925781 76.08386719 89.71289062 75.19335938 C90.11572266 74.35224609 90.51855469 73.51113281 90.93359375 72.64453125 C91.30540771 71.87471924 91.67722168 71.10490723 92.06030273 70.31176758 C93.04652149 67.88555158 93.56736479 65.57786785 94 63 C94.66 63 95.32 63 96 63 C96.27924316 62.12891602 96.55848633 61.25783203 96.84619141 60.36035156 C98.6844907 55.00648964 101.04801791 49.90610242 103.375 44.75 C103.85710937 43.64914063 104.33921875 42.54828125 104.8359375 41.4140625 C105.3103125 40.36476562 105.7846875 39.31546875 106.2734375 38.234375 C106.70060059 37.27756836 107.12776367 36.32076172 107.56787109 35.33496094 C109.19309809 32.68517045 110.24619749 32.25990965 113 31 C113.99 29.68 114.98 28.36 116 27 C116 39.21 116 51.42 116 64 C110.39 64 104.78 64 99 64 C99 64.66 99 65.32 99 66 C98.34 66 97.68 66 97 66 C96.77957031 66.75925781 96.55914062 67.51851563 96.33203125 68.30078125 C94.47969549 73.44495124 92.07959266 78.27530333 89.6875 83.1875 C88.61327865 85.40885291 87.53906 87.63020712 86.46484375 89.8515625 C85.62155518 91.59034668 85.62155518 91.59034668 84.76123047 93.36425781 C82.03683414 98.9838375 79.3330158 104.61333587 76.62612915 110.24136353 C74.41931328 114.82848732 72.2093276 119.41408559 70 124 C69.34 124 68.68 124 68 124 C67.37508667 122.62956543 67.37508667 122.62956543 66.73754883 121.23144531 C44.60396497 72.62728724 44.60396497 72.62728724 21.29443359 24.57958984 C20.97540573 23.94220383 20.65637787 23.30481781 20.3276825 22.64811707 C19.55206432 21.09860653 18.77607207 19.54928325 18 18 C17.93050505 30.43045592 17.87719118 42.86086566 17.84456348 55.29147625 C17.82890423 61.06344652 17.80766097 66.83528393 17.77368164 72.60717773 C17.74109783 78.1768455 17.72314894 83.74638541 17.71536827 89.31614113 C17.70982304 91.44162827 17.69899464 93.56710837 17.68280983 95.69254112 C17.66104884 98.66847254 17.65803255 101.64387493 17.65942383 104.61987305 C17.648638 105.49956757 17.63785217 106.37926208 17.6267395 107.28561401 C17.6506505 112.00886846 17.88769582 115.19185441 21 119 C23.90092502 120.93395001 24.89674737 121.30131941 28.1875 121.625 C30.0746875 121.810625 30.0746875 121.810625 32 122 C32 122.66 32 123.32 32 124 C20.78 124 9.56 124 -2 124 C-2 123.34 -2 122.68 -2 122 C-1.39671875 121.90203125 -0.7934375 121.8040625 -0.171875 121.703125 C4.66472214 120.79821328 7.96182788 120.17748667 11 116 C11.91999251 113.24002246 12.13295519 111.57255003 12.15390015 108.72463989 C12.16250061 107.85266968 12.17110107 106.98069946 12.17996216 106.08230591 C12.18422211 105.12847015 12.18848206 104.1746344 12.19287109 103.19189453 C12.20104858 102.18511658 12.20922607 101.17833862 12.21765137 100.14105225 C12.2424918 96.8049784 12.25901594 93.46894699 12.2734375 90.1328125 C12.27876118 88.99441799 12.28408485 87.85602348 12.28956985 86.68313217 C12.3162926 80.66034366 12.33567235 74.63757584 12.35009766 68.61474609 C12.36676434 62.38791137 12.41156208 56.16160397 12.4624691 49.93496895 C12.49608302 45.15147272 12.50766855 40.36810275 12.51332474 35.58449936 C12.52005087 33.28873529 12.53530803 30.99297991 12.55921555 28.69733047 C12.59074996 25.4867439 12.59092131 22.2775946 12.58349609 19.06689453 C12.59990143 18.11710724 12.61630676 17.16731995 12.63320923 16.18875122 C12.58965987 11.5942411 12.50861468 9.64811519 9.5897522 5.92868042 C7.33518546 4.24962451 5.89208852 3.27084262 3.1875 2.6875 C2.135625 2.460625 1.08375 2.23375 0 2 C0 1.34 0 0.68 0 0 Z " fill="#030303" transform="translate(138,156)"/>
<path d="M0 0 C0.33 0 0.66 0 1 0 C1 15.18 1 30.36 1 46 C3.97 45.01 6.94 44.02 10 43 C16.05486737 41.78198598 22.09677917 41.81651123 28.25 41.8125 C29.70986328 41.79413086 29.70986328 41.79413086 31.19921875 41.77539062 C41.50932688 41.75485256 50.43196618 43.0924492 59.5625 48 C60.25923828 48.35578125 60.95597656 48.7115625 61.67382812 49.078125 C64.43771511 50.51224254 66.7859701 51.7859701 69 54 C58.44 54 47.88 54 37 54 C37 54.66 37 55.32 37 56 C38.03125 55.9175 39.0625 55.835 40.125 55.75 C44.6504277 56.04196308 46.52200909 57.16907717 50 60 C52.39010685 63.58516028 52.24326602 65.14266967 52.22705078 69.39916992 C52.22734283 70.04334366 52.22763489 70.6875174 52.22793579 71.35121155 C52.22654384 73.47776823 52.21098938 75.60397337 52.1953125 77.73046875 C52.19158188 79.20591541 52.18873514 80.68136455 52.18673706 82.15681458 C52.17910442 86.03830822 52.15945917 89.91965196 52.1373291 93.80108643 C52.11686269 97.76255261 52.10773365 101.72404305 52.09765625 105.68554688 C52.07621286 113.45709956 52.04208145 121.22852877 52 129 C48.12446936 125.13818897 44.45144852 121.19844107 40.875 117.0625 C40.30587891 116.40572266 39.73675781 115.74894531 39.15039062 115.07226562 C35.00570625 110.25297265 31.05644283 105.3103561 27.17211914 100.28051758 C23.17395025 95.13815255 18.92872139 90.23463352 14.63598633 85.33740234 C11.56654074 81.82933302 8.57684701 78.28483955 5.6875 74.625 C-3.13853079 63.52599236 -3.13853079 63.52599236 -15 56 C-11.44005237 51.82093105 -6.91336946 49.31440569 -2 47 C-1.34 47 -0.68 47 0 47 C0 31.49 0 15.98 0 0 Z " fill="#5270FB" transform="translate(283,165)"/>
<path d="M0 0 C0.33 0 0.66 0 1 0 C1.14695312 1.30324219 1.14695312 1.30324219 1.296875 2.6328125 C2.22846866 11.64384978 2.22846866 11.64384978 7 19 C12.06361074 21.67971153 17.2874124 23.39867499 23 24 C23 24.33 23 24.66 23 25 C22.11957031 25.17015625 21.23914063 25.3403125 20.33203125 25.515625 C19.17058594 25.75796875 18.00914062 26.0003125 16.8125 26.25 C15.66394531 26.48203125 14.51539063 26.7140625 13.33203125 26.953125 C9.03322131 28.30374758 6.0523508 30.02869499 3.890625 34.078125 C2.41963874 39.06512721 1.47119429 43.81686282 1 49 C-2.08075862 45.91924138 -1.80099051 42.25439457 -2.33984375 38.04296875 C-3.28778899 33.673446 -4.74447884 30.86920696 -8.4375 28.3125 C-13.50682103 26.44485541 -18.66294684 25.73406071 -24 25 C-24 24.67 -24 24.34 -24 24 C-22.89140625 23.75765625 -21.7828125 23.5153125 -20.640625 23.265625 C-19.17690757 22.92784406 -17.71337531 22.58926002 -16.25 22.25 C-15.52039063 22.09273437 -14.79078125 21.93546875 -14.0390625 21.7734375 C-9.62865214 20.73097687 -6.8063685 19.78723517 -4 16 C-2.2645603 12.48889518 -1.52408002 9.03561726 -0.875 5.1875 C-0.70742188 4.21167969 -0.53984375 3.23585937 -0.3671875 2.23046875 C-0.24601562 1.49441406 -0.12484375 0.75835937 0 0 Z " fill="#0B0B0B" transform="translate(314,150)"/>
<path d="M0 0 C0.33 0 0.66 0 1 0 C1 22.44 1 44.88 1 68 C-1.5388859 64.6148188 -2.75211823 62.48420309 -4.125 58.625 C-4.45757812 57.70976562 -4.79015625 56.79453125 -5.1328125 55.8515625 C-10.39935684 38.53364642 -8.32889207 15.98132591 0 0 Z " fill="#526FF6" transform="translate(244,247)"/>
<path d="M0 0 C0.33 0 0.66 0 1 0 C1 11.88 1 23.76 1 36 C-4.61 36 -10.22 36 -16 36 C-12.5750459 27.65989239 -8.97091047 19.43307738 -5.1875 11.25 C-4.68541016 10.15945312 -4.18332031 9.06890625 -3.66601562 7.9453125 C-2.44592957 5.29598279 -1.22390553 2.64756682 0 0 Z " fill="#FAFAFA" transform="translate(253,183)"/>
<path d="M0 0 C0.66 0.66 1.32 1.32 2 2 C-2.29 11.24 -6.58 20.48 -11 30 C-5.72 30.33 -0.44 30.66 5 31 C5 31.33 5 31.66 5 32 C-0.61 32 -6.22 32 -12 32 C-12 32.66 -12 33.32 -12 34 C-12.66 34 -13.32 34 -14 34 C-14.25523437 34.82757813 -14.51046875 35.65515625 -14.7734375 36.5078125 C-16.15257503 40.43440151 -17.83605302 44.12257463 -19.625 47.875 C-19.94984375 48.56335938 -20.2746875 49.25171875 -20.609375 49.9609375 C-21.40323472 51.64205219 -22.20119558 53.32122921 -23 55 C-23.99 55 -24.98 55 -26 55 C-24.24851028 49.10474192 -22.00580614 43.77440412 -19.0859375 38.359375 C-17.95531706 35.90291908 -17.42481553 33.6621773 -17 31 C-16.34 31 -15.68 31 -15 31 C-14.72220703 30.12964111 -14.44441406 29.25928223 -14.15820312 28.36254883 C-12.30272383 22.97563562 -9.86949453 17.8642639 -7.5 12.6875 C-7.00113281 11.57826172 -6.50226563 10.46902344 -5.98828125 9.32617188 C-5.50746094 8.27365234 -5.02664062 7.22113281 -4.53125 6.13671875 C-4.09361328 5.17467529 -3.65597656 4.21263184 -3.20507812 3.22143555 C-2 1 -2 1 0 0 Z " fill="#1D1D1D" transform="translate(249,188)"/>
<path d="M0 0 C3.37910386 3.27971845 6.4700798 6.6886696 9.5078125 10.28515625 C11.56232357 12.64623049 13.75469885 14.82073711 16 17 C15.67 17.33 15.34 17.66 15 18 C9.38073305 17.71903665 6.01647929 17.25274278 2 13 C-0.47903526 8.75022527 -0.16222402 4.78560862 0 0 Z " fill="#EFF0F4" transform="translate(249,324)"/>
<path d="M0 0 C0.66 0.66 1.32 1.32 2 2 C-1.96 10.25 -5.92 18.5 -10 27 C-10.99 27 -11.98 27 -13 27 C-11.17668594 20.73235792 -8.68823019 14.90579796 -5.9375 9 C-5.58494141 8.23373291 -5.23238281 7.46746582 -4.86914062 6.67797852 C-2.24324763 1.12162381 -2.24324763 1.12162381 0 0 Z " fill="#161616" transform="translate(249,188)"/>
<path d="M0 0 C0.66 0.66 1.32 1.32 2 2 C1.67 2.66 1.34 3.32 1 4 C6.28 4.33 11.56 4.66 17 5 C17 5.33 17 5.66 17 6 C11.39 6 5.78 6 0 6 C0 6.66 0 7.32 0 8 C-0.66 8 -1.32 8 -2 8 C-2.33 8.66 -2.66 9.32 -3 10 C-3.66 10 -4.32 10 -5 10 C-5 8.35 -5 6.7 -5 5 C-4.34 5 -3.68 5 -3 5 C-2.87625 4.360625 -2.7525 3.72125 -2.625 3.0625 C-2.41875 2.381875 -2.2125 1.70125 -2 1 C-1.34 0.67 -0.68 0.34 0 0 Z " fill="#363636" transform="translate(237,214)"/>
<path d="M0 0 C0.66 0.66 1.32 1.32 2 2 C0.75 4.9375 0.75 4.9375 -1 8 C-3.1875 8.875 -3.1875 8.875 -5 9 C-3.90931332 5.22454612 -3.0916909 2.52956528 0 0 Z " fill="#222222" transform="translate(249,188)"/>
<path d="M0 0 C0.33 0.99 0.66 1.98 1 3 C-0.3125 5.1875 -0.3125 5.1875 -2 7 C-2.66 7 -3.32 7 -4 7 C-3.39816251 4.97954558 -2.72693904 2.97888961 -2 1 C-1.34 0.67 -0.68 0.34 0 0 Z " fill="#0E0E0E" transform="translate(233,223)"/>
<path d="M0 0 C0.33 0.99 0.66 1.98 1 3 C-0.3125 5.1875 -0.3125 5.1875 -2 7 C-2.66 7 -3.32 7 -4 7 C-3.39816251 4.97954558 -2.72693904 2.97888961 -2 1 C-1.34 0.67 -0.68 0.34 0 0 Z " fill="#101010" transform="translate(252,182)"/>
<path d="M0 0 C0.33 0.99 0.66 1.98 1 3 C-0.3125 5.1875 -0.3125 5.1875 -2 7 C-2.66 7 -3.32 7 -4 7 C-2.92598892 4.08482708 -2.22189824 2.22189824 0 0 Z " fill="#0A0A0A" transform="translate(240,208)"/>
</svg>
